<svg version="1.2" xmlns="http://www.w3.org/2000/svg" viewBox="0 0 1388 1505" width="1388" height="1505">
	<title>ICICI_Bank_Logo-svg</title>
	<style>
		.s0 { fill: #f06321 } 
		.s1 { fill: #ae282e } 
		.s2 { fill: #ffffff } 
	</style>
	<g id="layer1">
		<g id="g651">
			<path id="path160" class="s0" d="m393.4 327.4c343-340.8 759.2-429.2 925.7-197 166.6 232.3 20.2 701.7-322.8 1042.4-343.1 343.2-759.2 431.5-928.3 196.8-163.9-234.7-17.5-701.7 325.4-1042.2z"/>
			<path id="path162" class="s1" d="m1319.1 130.4c58 85.8 75.7 199.5 63.1 328.1-45.4 174.1-156.4 361-322.9 522.4-307.7 300.4-676 376.1-829.8 171.7-148.9-204.5-22.7-613.3 277.5-911 37.8-35.5 75.6-68.3 113.5-96 285-181.8 567.5-196.8 698.6-15.2z"/>
			<path id="path164" class="s2" d="m1054.3 183.4v7.6c-2.6 42.9-27.8 95.9-73.2 141.3-68 65.6-158.8 90.8-196.8 53.1-42.8-40.4-17.5-128.8 50.6-199.5 70.6-68.1 161.4-90.8 199.2-50.4 12.6 12.6 20.2 27.7 20.2 47.9zm-262.3 1158.4c-161.5 121.1-327.9 181.8-489.4 156.6 68.1 2.5 123.7-73.3 169.1-174.2 45.4-103.5 70.6-199.3 93.3-290.3 32.8-143.8 35.3-244.7 17.6-267.4-27.7-35.5-88.2-27.8-158.9 12.6-35.3 20.2-80.7 7.6-27.6-58 55.4-65.6 269.7-222.2 345.4-247.4 85.8-22.7 181.6 10.1 148.9 103.4-22.9 68.1-320.4 845.5-98.4 764.7z"/>
		</g>
	</g>
</svg>